<svg xmlns="http://www.w3.org/2000/svg" width="241.55" height="168.561" viewBox="0 0 241.55 168.561">
  <g id="quote" transform="translate(-479.372 -230.474)" opacity="0.595">
    <path id="Path_60" data-name="Path 60" d="M537.925,240.2a84.609,84.609,0,0,1,37.42-9.29c-16.29,14.95-28.44,32.16-34.27,53.84,3.72.78,6.98,1.33,10.17,2.15,28.97,7.5,47.06,35.8,42.09,65.77-4.68,28.14-31.65,48.55-61.02,46.17-29.05-2.36-50.48-23.33-52.64-53.82C476.485,299.889,498.7,259.579,537.925,240.2Z" fill="#ddc603"/>
    <path id="Path_61" data-name="Path 61" d="M650.815,248.329c13.68-10.09,29.38-15.3,46.06-17.74a53.166,53.166,0,0,1,6.38-.03c-17.47,15.41-29.77,32.51-35.48,54.37,12.25,1.66,23,5.6,32.25,13.25a56.812,56.812,0,0,1-40.97,100.65c-30.27-2.57-52.32-26.35-52.89-56.74C605.445,303.359,619.285,271.6,650.815,248.329Z" fill="#ddc603"/>
  </g>
</svg>
