<svg xmlns="http://www.w3.org/2000/svg" width="42" height="42" viewBox="0 0 42 42">
  <g id="facebbookw" transform="translate(-692 -4494)">
    <path id="Path_63" data-name="Path 63" d="M70.539,85.55H65.469V73.328H63.336V67.47h2.11V65.753c0-2.707,1.279-5.6,4.869-5.6H74v5.156H71.21c-.458,0-.511.39-.511.683V67.47h3.4l-.3,3.5-.169,2.358h-3.1Zm-4.233-.967h3.4V72.361h3.164l.106-1.478.207-2.446H69.862V65.991c0-1.218.726-1.649,1.348-1.649h1.956V61.12h-2.85c-3.742,0-4.032,3.547-4.032,4.633v2.684h-2.11v3.925h2.133Z" transform="translate(644.498 4442.104)" fill="#fff" stroke="#fff" stroke-width="1"/>
    <g id="Ellipse_4" data-name="Ellipse 4" transform="translate(692 4494)" fill="none" stroke="#fff" stroke-width="3">
      <circle cx="21" cy="21" r="21" stroke="none"/>
      <circle cx="21" cy="21" r="19.5" fill="none"/>
    </g>
  </g>
</svg>
