<svg xmlns="http://www.w3.org/2000/svg" width="331.193" height="87.63" viewBox="0 0 331.193 87.63">
  <g id="flogo" transform="translate(-153.6 -365.906)">
    <g id="Group_64" data-name="Group 64" transform="translate(153.6 365.906)">
      <path id="Path_66" data-name="Path 66" d="M308.191,398.863q-21.876,0-43.754.016c-.689,0-.946-.222-1.168-.874-.7-2.064-1.477-4.1-2.3-6.123-.412-1.016-.985-1.967-1.567-3.107h1.088q16.661,0,33.322.007a1.143,1.143,0,0,0,1.134-.539q6.976-10.8,13.989-21.566c.12-.185.2-.4.351-.693h-.86q-29.924,0-59.848.014a56.587,56.587,0,0,0-15.21,1.807,10.152,10.152,0,0,1-5.839-.2c-.232-.069-.466-.134-.7-.183a70.045,70.045,0,0,0-14.215-1.431q-19.289-.022-38.577,0c-1.075,0-2.3-.266-3.178.163-.847.414-1.337,1.561-1.971,2.4q-7.347,9.7-14.688,19.4c-.171.226-.325.464-.6.86h48.5c-7.5,14.289-6.993,28.28.973,42.148H180.721V399.035H153.646v54.5h.941q28.752,0,57.5,0a65.5,65.5,0,0,0,18.122-2.422,2.252,2.252,0,0,1,1.181,0,65.08,65.08,0,0,0,18.2,2.426q29.4,0,58.8,0h.991V398.863Zm-77.367,26.171c-8.94-6.592-9.9-22.043-.017-29.853C240.405,402.642,240.356,417.7,230.824,425.033Zm51.731,5.159c0,.237-.026.474-.044.779H258.386c.279-.454.518-.827.742-1.208a38.869,38.869,0,0,0,4.382-10.651c.138-.577.368-.779.972-.776q8.61.033,17.219,0c.667,0,.875.188.869.862C282.542,422.864,282.557,426.528,282.555,430.193Z" transform="translate(-153.6 -365.906)" fill="#ffe400"/>
    </g>
    <g id="Group_65" data-name="Group 65" transform="translate(330.123 382.769)" style="isolation: isolate">
      <path id="Path_67" data-name="Path 67" d="M1522.366,502.735q0,.15-.273.15-1.022,0-3.1-.177t-3.115-.177a6.31,6.31,0,0,0-1.527.1q-.5.232-.5,1.309,0,1.295.654,1.472a3.71,3.71,0,0,0,.832.068q.94,0,2.815-.1t2.815-.1q.45,0,.45,2.4a10.074,10.074,0,0,1-.15,2.426.361.361,0,0,1-.368.245,4.856,4.856,0,0,0-.859-.1q-1.459-.136-4.417-.136-.954,0-1.077.014-.7.109-.7.586,0,1.936.164,4.457.136,2.276.136,2.031,0,.354-.859.409a11.711,11.711,0,0,0-1.213-.014,18.293,18.293,0,0,1-3.285-.177q-.4-.1-.4-.422,0-1.513.1-4.546t.1-4.546q0-1.8-.164-4.526-.245-4.212-.259-4.525l-.014-.164q-.014-.341.409-.341,1.009,0,3.047.041t3.06.041q1.091,0,3.278-.164t3.278-.164q.682,0,.763.559,0,.586.055,1.758.027.3.177,1.159A6.99,6.99,0,0,1,1522.366,502.735Z" transform="translate(-1507.985 -497.718)" fill="#fff"/>
      <path id="Path_68" data-name="Path 68" d="M1706.27,508.614q0,1.608.082,4.839t.082,4.839q0,.273-.123.341a2.845,2.845,0,0,1-.354.055,20.369,20.369,0,0,1-2.372.109,17.346,17.346,0,0,1-2.535-.109q-.4-.082-.4-.423,0,.218.123-2.4.245-5.52.245-7.252,0-1.458-.1-4.376t-.1-4.376q0-.3.313-.3.422,0,1.275.041t1.274.041q.422,0,1.247-.041t1.247-.041q.4,0,.4.3,0,1.459-.157,4.376T1706.27,508.614Z" transform="translate(-1675.367 -498.991)" fill="#fff"/>
      <path id="Path_69" data-name="Path 69" d="M1842.843,502.644q0,.273-.3.273-.518,0-4.1-.2-.082,3.449-.082,4.812,0,1.608.129,4.839t.13,4.839q0,.259-.123.327a1.63,1.63,0,0,1-.382.068,19.612,19.612,0,0,1-2.4.109,18.792,18.792,0,0,1-2.467-.109.4.4,0,0,1-.382-.423q0-1.608.136-4.825t.136-4.825q0-1.063-.109-4.744-2.726.273-4.348.273-.218,0-.218-.136a7.934,7.934,0,0,1,.191-1.05q.218-.954.245-1.159.041-.64.1-1.281.1-1.022.327-1.022c.018,0,.082,0,.191.014a55.009,55.009,0,0,0,6.529.286q1.227,0,4.526-.259l1.786-.136a.747.747,0,0,1,.314.034c.027.023.045.111.054.266q0,.368-.027,1.022-.028.723-.027,1.022a8.2,8.2,0,0,0,.088,1A8.192,8.192,0,0,1,1842.843,502.644Z" transform="translate(-1786.503 -497.9)" fill="#fff"/>
      <path id="Path_70" data-name="Path 70" d="M2040.025,498.169q0,1.554-.13,4.669t-.129,4.682V516.5q0,.368-.4.368-.327,0-.988.027t-.988.027q-.354,0-1.063-.055t-1.063-.055q-.245,0-.586-.45-.981-1.322-4.417-5.861-.94-1.268-2.863-3.735a.571.571,0,0,0-.2-.164.378.378,0,0,0-.109.3q0,1.581.089,4.744t.089,4.744q0,.477-.368.477h-4.717q-.4,0-.4-.423,0-1.472.143-4.444t.143-4.457q0-1.567-.129-4.689t-.13-4.675q0-.3.531-.3.791,0,1.949-.109.272-.027,1.077-.177a6.443,6.443,0,0,1,1.077-.123q.163,0,.5.463l5.084,6.965q.681.941,2.058,2.753.341.423.586.423.177,0,.177-1.063,0-1.431-.157-4.307t-.156-4.321q0-.5.286-.5.818,0,2.467-.068t2.467-.068Q2040.025,497.746,2040.025,498.169Z" transform="translate(-1954.609 -497.174)" fill="#fff"/>
      <path id="Path_71" data-name="Path 71" d="M2266.534,514.448a17.763,17.763,0,0,1-.232,2.154,8.222,8.222,0,0,1-.436,2.031.507.507,0,0,1-.45.259,3.321,3.321,0,0,1-.409-.041q-.995-.136-5.807-.136-1.05,0-3.122-.014t-3.108-.014q-.45,0-.45-.4,0-1.527.17-4.587t.17-4.587q0-1.554-.164-5.793-.041-1.09-.15-3.258l-.014-.191q-.028-.313.341-.314,1.009,0,3.033.055t3.033.055q.995,0,3-.055t3-.055q.708,0,.818.532.068.314.211,1.9t.143,1.929q0,.286-.273.286-.082,0-.286-.014-3.626-.3-6.516-.3-.723,0-.886.341a4.285,4.285,0,0,0-.068,1.05,1.924,1.924,0,0,0,.272,1.227,1.171,1.171,0,0,0,.886.259c.091,0,.268-.007.531-.02s.482-.02.654-.02q1.718,0,3.476-.1l.75-.068a6.663,6.663,0,0,1,.736-.055q.327,0,.327.313a19.563,19.563,0,0,0-.245,2.085,21.822,21.822,0,0,0-.109,2.181q0,.273-.4.273l-1.227-.136q-.777-.082-3.544-.082h-1.445q-.559,0-.654.273-.014.068-.014.845a4,4,0,0,0,.136,1.336q.231.518,1.745.613h1.99q.722,0,2.147-.129t2.133-.13Q2266.533,513.957,2266.534,514.448Z" transform="translate(-2155.244 -498.991)" fill="#fff"/>
      <path id="Path_72" data-name="Path 72" d="M2450.678,508.6a6.024,6.024,0,0,1-2.331,4.744,9.958,9.958,0,0,1-4.975,2.222,1.506,1.506,0,0,1-.177.014q-.314,0-1.391-1.915a8.268,8.268,0,0,1-1.077-2.338c0-.1.068-.164.2-.191a14.417,14.417,0,0,0,2.617-.763,2.252,2.252,0,0,0,1.418-2.1,3.209,3.209,0,0,0-.927-1.976q-1.608-1.854-1.745-2.058a5.55,5.55,0,0,1-.94-3.135,4.933,4.933,0,0,1,2.3-4.144,10.35,10.35,0,0,1,4.621-1.772c.1-.009.177-.014.232-.014q.2,0,.327.327.354,1,1.649,3.6a.321.321,0,0,1,.041.136q0,.232-.245.232a2.736,2.736,0,0,1-.368-.041,2.747,2.747,0,0,0-.4-.041,3.228,3.228,0,0,0-1.718.45,1.6,1.6,0,0,0-.886,1.445,3.567,3.567,0,0,0,.981,2.045q1.731,2.181,1.813,2.29A5.476,5.476,0,0,1,2450.678,508.6Z" transform="translate(-2318.899 -495.175)" fill="#fff"/>
      <path id="Path_73" data-name="Path 73" d="M2611.191,508.6a6.023,6.023,0,0,1-2.331,4.744,9.958,9.958,0,0,1-4.975,2.222,1.5,1.5,0,0,1-.177.014q-.313,0-1.39-1.915a8.26,8.26,0,0,1-1.077-2.338c0-.1.068-.164.2-.191a14.419,14.419,0,0,0,2.617-.763,2.252,2.252,0,0,0,1.418-2.1,3.209,3.209,0,0,0-.927-1.976q-1.608-1.854-1.745-2.058a5.55,5.55,0,0,1-.94-3.135,4.933,4.933,0,0,1,2.3-4.144,10.35,10.35,0,0,1,4.621-1.772c.1-.009.177-.014.232-.014q.2,0,.327.327.354,1,1.65,3.6a.321.321,0,0,1,.041.136q0,.232-.245.232a2.728,2.728,0,0,1-.368-.041,2.744,2.744,0,0,0-.4-.041,3.227,3.227,0,0,0-1.718.45,1.6,1.6,0,0,0-.886,1.445,3.569,3.569,0,0,0,.981,2.045q1.731,2.181,1.813,2.29A5.474,5.474,0,0,1,2611.191,508.6Z" transform="translate(-2458.473 -495.175)" fill="#fff"/>
      <path id="Path_74" data-name="Path 74" d="M1524.527,773.6q0,.613-.7.613-.437,0-1.309.041t-1.322.041q-1.663,0-3.9-2.535-.7.668-2.208,1.895a6.351,6.351,0,0,1-3.653,1.036,4.246,4.246,0,0,1-3.449-1.527,5.48,5.48,0,0,1-1.186-3.64,5.537,5.537,0,0,1,1.363-3.83,18.691,18.691,0,0,1,3.3-2.481,9.684,9.684,0,0,1-.845-3.326,5.036,5.036,0,0,1,1.295-3.64,4.753,4.753,0,0,1,3.6-1.349,4.358,4.358,0,0,1,3.108,1.063,4.035,4.035,0,0,1,1.159,3.067,3.709,3.709,0,0,1-.981,2.454,7.215,7.215,0,0,1-1.159,1.036q-.981.723-1.213.913.327.491,1.036,1.431.381.45,1.118,1.363a9.84,9.84,0,0,1,1.908-1.963,4.41,4.41,0,0,1,2.59-.791,3.219,3.219,0,0,1,.968.082q.3.15.3.818a10.02,10.02,0,0,1-.218,2.413q-.082.327-.681.45a6.713,6.713,0,0,0-1.295.368,3.336,3.336,0,0,0-1.445,1.363,3.053,3.053,0,0,0,2.835,1.39q.981,0,.981.368Zm-8.9-4.294a10.813,10.813,0,0,1-1.363-1.581q-1.172-1.581-1.24-1.663a3.878,3.878,0,0,0-1.363,1.254,3,3,0,0,0-.613,1.731,2.073,2.073,0,0,0,.5,1.445,1.743,1.743,0,0,0,1.39.6,2.913,2.913,0,0,0,1.6-.532A2.638,2.638,0,0,0,1515.626,769.31Zm1.445-10.618q0-1.281-1.5-1.281a1.856,1.856,0,0,0-1.247.436,1.447,1.447,0,0,0-.511,1.159,3.688,3.688,0,0,0,.859,2.29Q1517.071,759.973,1517.071,758.691Z" transform="translate(-1506.807 -721.021)" fill="#fff"/>
      <path id="Path_75" data-name="Path 75" d="M1725.193,775.811q-1.173,0-3.053-.055l-3.053-.068-4.076-.055q-.613.013-1.758-.055-.4-.068-.4-.423,0-1.485.048-4.45t.048-4.45q0-1.581-.1-4.737t-.1-4.737q0-.3.409-.3t1.22.041q.811.041,1.206.041.45,0,1.336-.048t1.336-.048q.2,0,.191.259l-.013.177q-.164,2.563-.368,7.7l-.014,3.6q0,1.745.014,2.549.013.164.027.327a.223.223,0,0,0,.2.2h.354q1.227,0,3.674-.13t3.674-.129q.368,0,.368.314a20.636,20.636,0,0,1-.341,4.021q-.068.354-.286.422A2.823,2.823,0,0,1,1725.193,775.811Z" transform="translate(-1685.896 -722.384)" fill="#fff"/>
      <path id="Path_76" data-name="Path 76" d="M1834.052,765.416q0,1.609.082,4.839t.082,4.839q0,.273-.123.341a2.858,2.858,0,0,1-.354.055,20.39,20.39,0,0,1-2.372.109,17.362,17.362,0,0,1-2.535-.109q-.4-.082-.4-.423,0,.218.123-2.4.245-5.52.245-7.252,0-1.458-.1-4.375t-.1-4.376q0-.3.313-.3.422,0,1.275.041t1.274.041q.422,0,1.247-.041t1.247-.041q.4,0,.4.3,0,1.459-.157,4.376T1834.052,765.416Z" transform="translate(-1786.48 -722.293)" fill="#fff"/>
      <path id="Path_77" data-name="Path 77" d="M1906.063,759.536q0,.15-.273.15-1.022,0-3.1-.177t-3.115-.177a6.291,6.291,0,0,0-1.527.1q-.5.232-.5,1.309,0,1.295.654,1.472a3.709,3.709,0,0,0,.832.068q.94,0,2.815-.1t2.815-.1q.45,0,.45,2.4a10.068,10.068,0,0,1-.15,2.426.361.361,0,0,1-.368.245,4.853,4.853,0,0,0-.859-.1q-1.459-.136-4.417-.136-.954,0-1.077.014-.7.109-.7.586,0,1.936.163,4.457.136,2.277.136,2.031,0,.354-.859.409a11.741,11.741,0,0,0-1.213-.014,18.293,18.293,0,0,1-3.285-.177q-.4-.1-.4-.423,0-1.513.1-4.546t.1-4.546q0-1.8-.164-4.525-.245-4.212-.259-4.526l-.014-.164q-.014-.34.409-.341,1.009,0,3.047.041t3.06.041q1.091,0,3.278-.164t3.278-.164q.682,0,.763.559,0,.586.054,1.758.027.3.177,1.159A6.981,6.981,0,0,1,1906.063,759.536Z" transform="translate(-1841.629 -721.021)" fill="#fff"/>
      <path id="Path_78" data-name="Path 78" d="M2026.669,771.25a17.747,17.747,0,0,1-.232,2.154,8.21,8.21,0,0,1-.436,2.031.507.507,0,0,1-.45.259,3.308,3.308,0,0,1-.409-.041q-1-.137-5.807-.136-1.05,0-3.121-.014t-3.108-.014q-.45,0-.45-.4,0-1.526.171-4.587t.17-4.587q0-1.554-.164-5.793-.041-1.09-.15-3.258l-.014-.191q-.027-.313.341-.313,1.008,0,3.033.055t3.033.055q.995,0,3-.055t3-.055q.709,0,.818.532.068.314.211,1.9t.143,1.929q0,.286-.273.286-.082,0-.286-.014-3.626-.3-6.516-.3-.723,0-.886.341a4.269,4.269,0,0,0-.068,1.05,1.923,1.923,0,0,0,.273,1.227,1.171,1.171,0,0,0,.886.259q.136,0,.532-.02t.654-.02q1.718,0,3.476-.1l.75-.068a6.667,6.667,0,0,1,.736-.055q.327,0,.327.313a19.706,19.706,0,0,0-.245,2.086,21.814,21.814,0,0,0-.109,2.181q0,.273-.4.272l-1.227-.136q-.777-.082-3.544-.082h-1.445q-.559,0-.654.273-.014.068-.014.845a4.006,4.006,0,0,0,.136,1.336q.232.518,1.745.613h1.99q.722,0,2.147-.13t2.133-.129Q2026.669,770.759,2026.669,771.25Z" transform="translate(-1946.669 -722.293)" fill="#fff"/>
      <path id="Path_79" data-name="Path 79" d="M2138.908,765.4a6.024,6.024,0,0,1-2.331,4.744,9.959,9.959,0,0,1-4.975,2.222,1.546,1.546,0,0,1-.177.014q-.314,0-1.39-1.915a8.269,8.269,0,0,1-1.077-2.338q0-.15.2-.191a14.39,14.39,0,0,0,2.617-.763,2.252,2.252,0,0,0,1.418-2.1,3.21,3.21,0,0,0-.927-1.976q-1.609-1.854-1.745-2.058a5.549,5.549,0,0,1-.941-3.135,4.932,4.932,0,0,1,2.3-4.144,10.35,10.35,0,0,1,4.621-1.772c.1-.009.177-.014.232-.014q.2,0,.327.327.354,1,1.649,3.6a.325.325,0,0,1,.041.136q0,.232-.246.232a2.738,2.738,0,0,1-.368-.041,2.747,2.747,0,0,0-.4-.041,3.228,3.228,0,0,0-1.718.45,1.6,1.6,0,0,0-.886,1.445,3.566,3.566,0,0,0,.981,2.045q1.731,2.181,1.813,2.29A5.475,5.475,0,0,1,2138.908,765.4Z" transform="translate(-2047.799 -718.477)" fill="#fff"/>
      <path id="Path_80" data-name="Path 80" d="M2228.5,759.446q0,.273-.3.273-.519,0-4.1-.2-.082,3.449-.082,4.812,0,1.609.129,4.839t.129,4.839q0,.259-.123.327a1.623,1.623,0,0,1-.382.068,19.637,19.637,0,0,1-2.4.109,18.814,18.814,0,0,1-2.467-.109.4.4,0,0,1-.382-.423q0-1.608.137-4.825t.136-4.825q0-1.063-.109-4.743-2.726.273-4.348.272-.218,0-.218-.136a7.89,7.89,0,0,1,.191-1.05q.218-.954.245-1.159.041-.641.1-1.281.1-1.022.327-1.022c.018,0,.082,0,.191.014a55.028,55.028,0,0,0,6.529.286q1.226,0,4.525-.259l1.786-.136a.748.748,0,0,1,.313.034q.041.034.055.266,0,.368-.027,1.022-.027.723-.027,1.022a8.158,8.158,0,0,0,.089,1A8.234,8.234,0,0,1,2228.5,759.446Z" transform="translate(-2121.851 -721.203)" fill="#fff"/>
      <path id="Path_81" data-name="Path 81" d="M2345.631,761.313a2.261,2.261,0,0,1-.218,1.022,44.7,44.7,0,0,1-4.866,7.429,1.776,1.776,0,0,0-.436,1.036q0,.723.082,2.167t.082,2.154c0,.164-.037.264-.109.3a3.365,3.365,0,0,1-.368.068,21.027,21.027,0,0,1-2.454.082,22.9,22.9,0,0,1-2.522-.082q-.382-.054-.381-.4,0-.722.123-2.2t.123-2.215a1.754,1.754,0,0,0-.327-.941q-1.649-2.331-4.716-7.143a1.85,1.85,0,0,1-.313-.872q0-.818-.082-2.454t-.082-2.453q0-.45.272-.45.831,0,2.522.068t2.535.068q.313,0,.313.2,0,.7-.061,2.092t-.062,2.093a6.018,6.018,0,0,0,1.2,2.044q.954,1.281,1.567,1.976.559-.654,1.486-1.963a6.6,6.6,0,0,0,1.172-1.977q0-.682-.1-2.065t-.1-2.065q0-.286.123-.327h.341q.818,0,2.46-.075t2.474-.075q.272,0,.272.586,0,.723.027,2.174T2345.631,761.313Z" transform="translate(-2221.89 -722.293)" fill="#fff"/>
      <path id="Path_82" data-name="Path 82" d="M2481.617,775.811q-1.173,0-3.053-.055l-3.053-.068-4.076-.055q-.613.013-1.759-.055-.4-.068-.4-.423,0-1.485.048-4.45t.048-4.45q0-1.581-.1-4.737t-.1-4.737q0-.3.409-.3t1.22.041q.811.041,1.206.041.45,0,1.336-.048t1.336-.048q.2,0,.191.259l-.013.177q-.164,2.563-.368,7.7l-.014,3.6q0,1.745.014,2.549l.027.327a.223.223,0,0,0,.2.2h.354q1.226,0,3.674-.13t3.673-.129q.368,0,.368.314a20.626,20.626,0,0,1-.341,4.021q-.068.354-.286.422A2.827,2.827,0,0,1,2481.617,775.811Z" transform="translate(-2343.646 -722.384)" fill="#fff"/>
      <path id="Path_83" data-name="Path 83" d="M2599.081,771.25a17.7,17.7,0,0,1-.232,2.154,8.2,8.2,0,0,1-.436,2.031.507.507,0,0,1-.45.259,3.314,3.314,0,0,1-.409-.041q-.995-.137-5.807-.136-1.05,0-3.122-.014t-3.108-.014q-.45,0-.45-.4,0-1.526.17-4.587t.17-4.587q0-1.554-.164-5.793-.041-1.09-.15-3.258l-.013-.191q-.027-.313.341-.313,1.009,0,3.033.055t3.033.055q.995,0,3-.055t3-.055q.709,0,.818.532.068.314.211,1.9t.143,1.929q0,.286-.273.286-.082,0-.286-.014-3.625-.3-6.515-.3-.723,0-.886.341a4.259,4.259,0,0,0-.068,1.05,1.923,1.923,0,0,0,.273,1.227,1.171,1.171,0,0,0,.886.259q.136,0,.531-.02t.655-.02q1.718,0,3.476-.1l.75-.068a6.661,6.661,0,0,1,.736-.055q.327,0,.327.313a19.8,19.8,0,0,0-.245,2.086,21.814,21.814,0,0,0-.109,2.181q0,.273-.4.272l-1.227-.136q-.777-.082-3.544-.082H2591.3q-.559,0-.654.273-.014.068-.014.845a4.01,4.01,0,0,0,.136,1.336q.232.518,1.745.613h1.99q.722,0,2.147-.13t2.133-.129Q2599.08,770.759,2599.081,771.25Z" transform="translate(-2444.411 -722.293)" fill="#fff"/>
    </g>
  </g>
</svg>
