<svg xmlns="http://www.w3.org/2000/svg" width="42" height="42" viewBox="0 0 42 42">
  <g id="instagram2_" data-name="instagram2 " transform="translate(-765 -4494)">
    <path id="Path_64" data-name="Path 64" d="M191.092,77.437a5.031,5.031,0,1,1,5.026,5.037,5.038,5.038,0,0,1-5.026-5.037Zm10.226-9.845H190.929a4.668,4.668,0,0,0-4.656,4.657V82.638a4.676,4.676,0,0,0,4.656,4.656h10.389a4.668,4.668,0,0,0,4.656-4.656V72.249a4.661,4.661,0,0,0-4.656-4.657Zm-10.389,1.164h10.389a3.5,3.5,0,0,1,3.492,3.492V82.638a3.5,3.5,0,0,1-3.492,3.492H190.929a3.5,3.5,0,0,1-3.492-3.492V72.249a3.5,3.5,0,0,1,3.492-3.492Zm11.423,1.468a1.023,1.023,0,1,0,1.023,1.022,1.022,1.022,0,0,0-1.023-1.022Zm.12,7.213a6.353,6.353,0,1,0-6.354,6.353,6.354,6.354,0,0,0,6.354-6.353Z" transform="translate(590.192 4437.873)" fill="#fff" stroke="#fff" stroke-width="1" fill-rule="evenodd"/>
    <g id="Ellipse_5" data-name="Ellipse 5" transform="translate(765 4494)" fill="none" stroke="#fff" stroke-width="3">
      <circle cx="21" cy="21" r="21" stroke="none"/>
      <circle cx="21" cy="21" r="19.5" fill="none"/>
    </g>
  </g>
</svg>
