<svg xmlns="http://www.w3.org/2000/svg" width="42.316" height="42.506" viewBox="0 0 42.316 42.506">
  <g id="whatsappw" transform="translate(-1654.363 -923.432)">
    <g id="Group_26" data-name="Group 26" transform="translate(1523.781 812.719)">
      <path id="shape_2" data-name="shape 2" d="M130.582,153.219l2.989-10.914a21.071,21.071,0,1,1,18.258,10.549h-.009a21.054,21.054,0,0,1-10.068-2.564Zm11.687-6.742.64.379a17.492,17.492,0,0,0,8.913,2.441h.007a17.51,17.51,0,1,0-14.835-8.2l.417.662-1.77,6.46Z" transform="translate(0 0)" fill="#fff"/>
      <path id="shape_1" data-name="shape 1" d="M195.514,175.609c-.394-.877-.81-.894-1.185-.91-.307-.013-.658-.012-1.009-.012a1.934,1.934,0,0,0-1.4.659,5.9,5.9,0,0,0-1.843,4.39,10.24,10.24,0,0,0,2.15,5.445c.263.351,3.642,5.836,8.993,7.946,4.447,1.754,5.352,1.4,6.317,1.317s3.115-1.273,3.553-2.5a4.4,4.4,0,0,0,.307-2.5c-.132-.22-.483-.351-1.009-.614s-3.115-1.537-3.6-1.713-.834-.263-1.185.264-1.359,1.712-1.666,2.063-.614.4-1.141.132a14.4,14.4,0,0,1-4.233-2.613,15.853,15.853,0,0,1-2.929-3.646c-.307-.527-.033-.812.231-1.074.236-.236.527-.615.79-.922a3.6,3.6,0,0,0,.526-.878.969.969,0,0,0-.044-.922C197.005,179.253,195.982,176.65,195.514,175.609Z" transform="translate(-48.951 -52.639)" fill="#fff" fill-rule="evenodd"/>
    </g>
  </g>
</svg>
